<?xml version="1.0" encoding="UTF-8" standalone="no"?>
<!-- Created with Inkscape (http://www.inkscape.org/) -->

<svg
   xmlns:dc="http://purl.org/dc/elements/1.1/"
   xmlns:cc="http://creativecommons.org/ns#"
   xmlns:rdf="http://www.w3.org/1999/02/22-rdf-syntax-ns#"
   xmlns:svg="http://www.w3.org/2000/svg"
   xmlns="http://www.w3.org/2000/svg"
   xmlns:sodipodi="http://sodipodi.sourceforge.net/DTD/sodipodi-0.dtd"
   xmlns:inkscape="http://www.inkscape.org/namespaces/inkscape"
   width="200"
   height="200"
   id="svg2"
   version="1.1"
   inkscape:version="0.48.5 r10040"
   sodipodi:docname="afterburner.svg"
   inkscape:export-filename="C:\dev\project\Rainow Shooter\art\afterburner_2.png"
   inkscape:export-xdpi="100"
   inkscape:export-ydpi="100">
  <defs
     id="defs4" />
  <sodipodi:namedview
     id="base"
     pagecolor="#ffffff"
     bordercolor="#666666"
     borderopacity="1.0"
     inkscape:pageopacity="0.0"
     inkscape:pageshadow="2"
     inkscape:zoom="2.59"
     inkscape:cx="40.845964"
     inkscape:cy="78.926392"
     inkscape:document-units="px"
     inkscape:current-layer="layer2"
     showgrid="false"
     inkscape:window-width="1366"
     inkscape:window-height="705"
     inkscape:window-x="-8"
     inkscape:window-y="-8"
     inkscape:window-maximized="1" />
  <metadata
     id="metadata7">
    <rdf:RDF>
      <cc:Work
         rdf:about="">
        <dc:format>image/svg+xml</dc:format>
        <dc:type
           rdf:resource="http://purl.org/dc/dcmitype/StillImage" />
        <dc:title />
      </cc:Work>
    </rdf:RDF>
  </metadata>
  <g
     inkscape:label="afterburner"
     inkscape:groupmode="layer"
     id="layer1"
     transform="translate(0,-852.36218)">
    <path
       transform="matrix(1.2481927,0,0,1.1571383,-26.506014,867.81764)"
       d="m 117.37452,116.27351 c 0,14.31855 -7.17382,25.92603 -16.02317,25.92603 -8.849352,0 -16.023168,-11.60748 -16.023168,-25.92603 0,0 0,0 0,0 l 16.023168,0 z"
       sodipodi:ry="25.926027"
       sodipodi:rx="16.023167"
       sodipodi:cy="116.27351"
       sodipodi:cx="101.35135"
       id="path2992"
       style="opacity:0.8;fill:#ff0000"
       sodipodi:type="arc"
       sodipodi:start="0"
       sodipodi:end="3.1415927" />
    <path
       sodipodi:end="3.1415927"
       sodipodi:start="0"
       sodipodi:type="arc"
       style="opacity:0.9;fill:#ff7f00;fill-opacity:1"
       id="path2996"
       sodipodi:cx="101.35135"
       sodipodi:cy="116.27351"
       sodipodi:rx="16.023167"
       sodipodi:ry="25.926027"
       d="m 117.37452,116.27351 c 0,14.31855 -7.17382,25.92603 -16.02317,25.92603 -8.849352,0 -16.023168,-11.60748 -16.023168,-25.92603 0,0 0,0 0,0 l 16.023168,0 z"
       transform="matrix(0.99855416,0,0,0.92571064,-1.204811,894.72656)"
       inkscape:export-filename="C:\dev\project\Rainow Shooter\art\afterburner_1.png"
       inkscape:export-xdpi="100"
       inkscape:export-ydpi="100" />
    <path
       sodipodi:end="3.1415927"
       sodipodi:start="0"
       sodipodi:type="arc"
       style="fill:#ffff00"
       id="path2994"
       sodipodi:cx="101.35135"
       sodipodi:cy="116.27351"
       sodipodi:rx="16.023167"
       sodipodi:ry="25.926027"
       d="m 117.37452,116.27351 c 0,14.31855 -7.17382,25.92603 -16.02317,25.92603 -8.849352,0 -16.023168,-11.60748 -16.023168,-25.92603 0,0 0,0 0,0 l 16.023168,0 z"
       transform="matrix(0.49927709,0,0,0.46285534,49.397593,948.54436)" />
  </g>
  <g
     inkscape:groupmode="layer"
     id="layer2"
     inkscape:label="ship"
     style="display:none">
    <path
       sodipodi:nodetypes="ccccc"
       inkscape:connector-curvature="0"
       id="path2986"
       d="m 120.5,149.50002 59.5,0 0,-19.00002 -59.5,-15.74903 z"
       style="fill:#b3b3b3;stroke:#000000;stroke-width:1px;stroke-linecap:butt;stroke-linejoin:miter;stroke-opacity:1" />
    <path
       style="fill:#b3b3b3;stroke:#000000;stroke-width:1px;stroke-linecap:butt;stroke-linejoin:miter;stroke-opacity:1"
       d="m 80,149.50002 -59.5,0 L 20.5,130.5 80,114.75097 z"
       id="path2983"
       inkscape:connector-curvature="0"
       sodipodi:nodetypes="ccccc" />
    <path
       style="fill:#999999;stroke:#000000;stroke-width:0.70921981px;stroke-linecap:butt;stroke-linejoin:miter;stroke-opacity:1"
       d="m 100,50.3546 -49.645391,99.29082 99.290781,0 z"
       id="path2985"
       inkscape:connector-curvature="0"
       sodipodi:nodetypes="cccc" />
    <path
       sodipodi:type="arc"
       style="fill:#e6e6e6"
       id="path2988"
       sodipodi:cx="101.35135"
       sodipodi:cy="116.27351"
       sodipodi:rx="16.023167"
       sodipodi:ry="25.926027"
       d="m 117.37452,116.27351 a 16.023167,25.926027 0 1 1 -32.046338,0 16.023167,25.926027 0 1 1 32.046338,0 z"
       transform="matrix(0.93614454,0,0,0.86785375,5.120488,16.5916)" />
  </g>
</svg>
